<?xml version="1.0" encoding="utf-8"?>
<!-- Generator: Adobe Illustrator 23.1.1, SVG Export Plug-In . SVG Version: 6.00 Build 0)  -->
<svg version="1.1" id="Layer_1" xmlns="http://www.w3.org/2000/svg" xmlns:xlink="http://www.w3.org/1999/xlink" x="0px" y="0px"
	 viewBox="0 0 50 50" style="enable-background:new 0 0 50 50;" xml:space="preserve">
<style type="text/css">
	.st0{fill:#696969;}
</style>
<path class="st0" d="M8.2,6.2L8.3,8L11,38.9l0.1,1.1l1,0.3l12.4,3.5l0.4,0.1l0.4-0.1l12.4-3.4l1-0.3l0.1-1.1l2.8-31l0.1-1.7h-1.7
	l-30.3,0H8.2z M11.6,9.4l26.9,0l-2.5,28.1l-10.9,3l-10.9-3L11.6,9.4z M15.3,14.1l1,11.7h13.4l-0.4,5L25,31.9h0l-4.3-1.2l-0.2-3.2
	h-3.9l0.5,6.2l7.9,2.2h0l7.9-2.2L34,21.9H19.9l-0.3-4h14.8l0.3-3.9H15.3z"/>
</svg>
