<?xml version="1.0" encoding="utf-8"?>
<!-- Generator: Adobe Illustrator 23.1.1, SVG Export Plug-In . SVG Version: 6.00 Build 0)  -->
<svg version="1.1" id="Layer_1" xmlns="http://www.w3.org/2000/svg" xmlns:xlink="http://www.w3.org/1999/xlink" x="0px" y="0px"
	 viewBox="0 0 50 50" style="enable-background:new 0 0 50 50;" xml:space="preserve">
<style type="text/css">
	.st0{fill:#696969;}
</style>
<path class="st0" d="M7.8,7.8v34.4h34.4V7.8H7.8z M10.9,10.9h28.1v28.1H10.9V10.9z M31.6,23.4c-2.2,0-3.7,1.4-3.7,3.3
	c0,2,1.2,3,3,3.8l0.6,0.3c1.1,0.5,1.8,0.8,1.8,1.7c0,0.7-0.7,1.2-1.7,1.2c-1.2,0-1.9-0.7-2.5-1.5l-2,1.2c0.7,1.5,2.2,2.6,4.6,2.6
	c2.4,0,4.2-1.2,4.2-3.5c0-2.1-1.2-3-3.3-3.9L32,28.2c-1.1-0.5-1.5-0.8-1.5-1.5c0-0.6,0.5-1.1,1.2-1.1c0.7,0,1.2,0.3,1.6,1.1l2-1.3
	C34.4,24,33.2,23.4,31.6,23.4z M22.5,23.6v8.5c0,1.2-0.5,1.6-1.4,1.6c-0.9,0-1.2-0.6-1.6-1.3l-2,1.2c0.6,1.3,1.8,2.3,3.8,2.3
	c2.2,0,3.8-1.2,3.8-3.8v-8.6H22.5z"/>
</svg>
