<?xml version="1.0" encoding="utf-8"?>
<!-- Generator: Adobe Illustrator 21.0.0, SVG Export Plug-In . SVG Version: 6.00 Build 0)  -->
<svg version="1.1" id="Слой_1" xmlns="http://www.w3.org/2000/svg" xmlns:xlink="http://www.w3.org/1999/xlink" x="0px" y="0px"
	 viewBox="0 0 85 85" style="enable-background:new 0 0 85 85;" xml:space="preserve">
<style type="text/css">
	.st0{fill:#94989C;}
</style>
<path class="st0" d="M63.1,74.5l0-0.1c0.2-0.6,0.5-3.8,0.6-6c0.1-1.4,0.2-2.4,0.3-2.9c0.2-1.8,0.4-3.6,0.6-5.4l0.2-1.6l0.8,0.2
	c1.2,0.3,2.7,0.6,4.2,0.6c1.3,0,3.5-0.4,7.3-2.3c0.9-0.7,4-3.2,3-5c-0.5-0.8-1-1-4-0.6c-4.7,0.6-5.1,0.4-5.3,0.3
	c-0.3-0.1-0.7-0.4-1.3-0.8L69,50.6l0.4-0.6c0.3-0.4,0.6-0.9,0.8-1.3c0.7-1.1,1.3-2.1,2-3c2.3-4.4,3.6-7.7,4.4-10.2
	c1.4-3.8,2.4-7.4,3.2-11c1.3-5.6,1.7-8.1,0.9-11c-1.4-4.9-6.6-9.3-8.9-10.6l-0.4-0.2C69.8,1.8,66.3,0,61.3,0h0c-3.9,0-7.1,1.1-9.2,2
	l-0.3,0.1L51.6,2c-2.2-0.7-5.8-1.9-10-1.1c-2.5,0.4-4.8,1.5-6.9,3.1l-0.4,0.3l-0.4-0.2c-3.7-1.8-7.4-2.8-11.1-2.9
	C20.5,1,10.8,2,7.4,7c-1.6,2.5-2.6,5-3.1,7.6C3.8,17.1,3.7,20.1,4.7,27c0.6,4.5,1.3,7.4,3,13.6c0,0.1,0.1,0.3,0.2,0.6
	c0.4,1.4,1.5,4.6,3.7,11.2c0.6,1.7,1.7,4.3,3.8,6.7c1.5,1.9,2.9,2.8,4.3,2.8c2,0,3.5-1.3,5.1-3.3l0.4-0.4l1.2,0.9
	c-0.1,0.2-0.2,0.4-0.2,0.5c-0.3,1.3,1.6,2.6,3.3,3.3c1.5,0.7,3.1,0.9,4.2,0.9c1.5,0,2.6-0.3,3.4-0.5l0.2-0.1c0.1,0,1.5-0.5,3.3-1.7
	l1.1-0.7l0.1,4.3c0,3.8,0.1,7.7,0.2,8.7c0.6,4.9,1.9,8,4,9.6c1.5,1.2,4.4,1.5,5,1.5c3.3,0,8.2-2.2,10.3-5.5
	C62.3,78,62.7,76.7,63.1,74.5z M70.4,53.9c0.9,0.3,1.7,0.3,5.1,0l2.1-0.2l-1.5,1.5c-0.8,0.8-2.6,1.7-5.1,2.1c-0.3,0-0.6,0-0.9,0
	c-1.6,0-3.3-0.4-4.6-0.7L65,56.3l0.1-0.6c0.2-1.3,0.4-2,0.8-2.4c0.2-0.2,0.4-0.3,1-0.5c0.2-0.1,0.5-0.2,0.7-0.3l0.4-0.1l0.3,0.2
	C69,53.2,69.8,53.6,70.4,53.9z M66.8,35.3c0.1,1,0.2,2,0.2,2.5c0.2,2.1,0.2,3.2,0,4.8c0,0.1-0.3,1.4-0.6,2.4l-0.6,1.9L65,45.1
	c-0.4-1-0.9-2.1-1.4-3.2c-0.5-1.2-1-2.4-1.6-3.8c-2.8-6.4-3.1-7.8-3.1-8.9c0-1.4,0-3.4,1.4-4.3c1.2-1.1,2.7-1.6,4.3-1.6h0
	c0.7,0,1.4,0.1,2.1,0.2l0.6,0.1l0,0.6c0,1.1-0.3,3.5-0.5,5.4c-0.1,1.2-0.3,2.4-0.3,2.6C66.6,33,66.7,34.2,66.8,35.3z M56.6,2.9
	c1.8-0.4,3.3-0.6,4.7-0.6c4.2,0,7.3,1.5,9.1,2.3C70.7,4.8,71,4.9,71.2,5c2.2,1.2,7.2,5.2,7.6,9.1c0.2,2.1,0.4,4.3-1,9.8
	c-0.2,0.7-0.4,1.4-0.6,2.1c-0.6,2.3-1.4,5.1-2.6,8.7l-0.1,0.2c-0.9,2.6-2.1,5.8-4.3,9.7l-0.2,0.3l-2.9,5l1.6-5.6
	c0.2-0.8,0.4-1.4,0.4-1.4c0.4-1.8,0.3-3.3,0.2-5.4c-0.2-1.1-0.4-4-0.4-5.1c0-0.4,0.3-3.3,0.6-6.8l0.2-1.7c0.2-3.2-1.9-7.2-2.3-7.8
	l-0.5-0.7c-2.6-3.9-4-6.1-6.7-8.4c-0.8-0.7-2.1-1.7-3.7-2.7l-1.5-0.9L56.6,2.9z M23.1,57.1c-1.4,1.6-2.3,2.5-3.4,2.5
	c-0.6,0-1.6-0.7-2.6-1.9c-1.9-2.1-2.7-4.3-3.2-5.5l-0.1-0.4c-1.7-5.1-2.9-8.8-3.4-10.6c-0.2-0.6-0.3-1-0.4-1.1
	c-1.5-6.1-2.3-9.1-3-13.5c-0.9-5.7-1-9-0.4-11.8c0.6-3,1.7-5.2,2.5-6.4c2.4-3.8,8.9-5,12.3-5.1l0,0c0.5,0,0.9,0,1.2,0
	c2.9,0.2,5.8,0.8,8.7,2.1l1,0.4l-0.7,0.8c-0.3,0.4-0.7,0.7-1,1.1c-3.1,3.6-3.8,7.6-4.6,11.3c-1,4.8-1.1,9.6-0.4,14.2l0,0.1l-0.4,3.7
	c-0.2,1.9-0.5,5.3,1.4,8.8c0.7,1.2,1.4,2.2,2.3,3.1l0.4,0.5l-0.4,0.5C27.4,52.3,25.3,54.7,23.1,57.1z M27.7,26.9l0-0.3l0.3-0.2
	c1.2-1,2.4-1.7,3.8-2.1l0.5-0.1c1-0.3,2.2-0.6,3.2-0.4c0.5,0.1,0.9,0.2,1.3,0.4c1.8,0.9,2.2,3,2.2,3.1c1,4.4,1.3,10.7-0.2,14.9
	c-0.1,0.4-0.3,0.9-0.5,1.3c-0.1,0.2-0.2,0.4-0.3,0.6c-0.4,1-0.7,1.9-1.1,3.5c-0.1,0.5-0.1,1.2-0.1,1.9l0,0.9L36,50.2
	c-1.4-0.3-2.7-0.8-3.7-1.4c-1.5-0.7-2.7-2.1-3.6-3.9c-1.4-2.9-1.2-5.6-1-7.4l0.4-4.2C27.8,31.2,27.7,29,27.7,26.9z M26.6,58.9
	l-1.1-1c2-2.2,4-4.7,5.5-6.6l0.4-0.5l0.5,0.3c1.1,0.6,2.4,1.1,3.9,1.4l0.9,0.2l-0.4,0.8c-0.4,0.9-1.1,1.6-1.8,2.2
	c-1.3,0.9-2.9,1.5-5,2l-0.2,0c-0.1,0-0.1,0-0.2,0.1c-0.1,0-0.3,0.1-0.6,0.1C27.7,58.1,27,58.4,26.6,58.9z M41.4,57.9
	c-1.7,2-4.4,3.1-4.8,3.2c-0.6,0.3-1.6,0.5-2.8,0.5c-0.9,0-2-0.1-3-0.5l-2.2-0.7l2.2-0.7c1.9-0.6,3.6-1.1,5-2.1c1.2-0.9,2.3-2.3,3-4
	L39,53l0.6,0.1l-0.1,0.7l0.2-0.7c0.6,0.1,0.9,0.2,1.1,0.4c0.6,0.6,0.8,1.8,0.8,2.2c0,0.2,0,0.8,0,1.3l0,0.6L41.4,57.9z M60.7,75.2
	c-0.4,1.4-0.7,2.3-1.3,3.3c-1.4,2.2-5.5,3.9-8.1,3.9c-0.1,0-0.3,0-0.4,0c-0.8,0-2.1,0-3.2-0.9c-2.5-1.8-3.1-5.8-3.3-8
	c-0.1-0.8-0.1-3.5-0.1-6.8c0-4.4,0-9.8-0.3-11.6c0,0,0-0.2-0.1-0.3c-0.2-0.8-0.5-2.2-1.6-3.2c-0.4-0.3-1.3-0.6-2.8-0.8l-0.6-0.1
	l0-0.6c0-0.6,0-1.3,0.2-2c0.1-0.9,0.4-1.5,0.7-2.1c0.1-0.2,0.2-0.4,0.3-0.7c0.1-0.3,0.3-0.7,0.5-1.2c0.1-0.3,0.3-0.7,0.5-1.1
	c1.6-4.9,1.3-11.6,0.3-16.1c0-0.1-0.1-0.2-0.1-0.3c-0.3-0.8-1.1-3.1-3.2-4.4c-2.6-1.6-5.4-0.6-6.9-0.1c-0.6,0.2-1.2,0.4-2,0.8
	l-1.3,0.6l0.3-1.8c0.1-0.7,0.2-1.3,0.3-2c0.8-3.9,1.6-7.2,4.1-10.4c2.9-3.5,6-5.5,9.5-6.1C43,3.1,43.9,3,44.7,3.1
	c2.5,0.1,4.6,0.7,6.3,1.3c4,1.3,6.5,3.4,7.7,4.4c2.5,2.1,3.9,4.2,6.5,8.3l0.3,0.4c0.1,0.2,0.1,0.3,0.2,0.4c0.3,0.5,0.7,1.3,1,2.3
	l0.4,1.1L66,21.1c-3.7-0.3-6.1,1-7.4,2.2c-1.9,1.6-1.8,3.9-1.6,6.2c0,1.3,0.2,3,3.1,9.6l0.6,1.4c0.9,2.3,1.9,4.7,2.8,6.4
	c0.5,1.1,1.2,2.1,2,3.1l0.6,0.7l-0.8,0.4c-0.5,0.2-0.8,0.5-1.1,0.8c-0.9,1.1-1.1,2.3-1.5,4.6l0,0.1c-0.4,1.9-0.8,6-0.9,8.9
	c0,1.3-0.6,7.7-0.8,8.8L60.7,75.2z"/>
</svg>
