<?xml version="1.0" encoding="utf-8"?>
<!-- Generator: Adobe Illustrator 23.1.1, SVG Export Plug-In . SVG Version: 6.00 Build 0)  -->
<svg version="1.1" id="Layer_1" xmlns="http://www.w3.org/2000/svg" xmlns:xlink="http://www.w3.org/1999/xlink" x="0px" y="0px"
	 viewBox="0 0 50 50" style="enable-background:new 0 0 50 50;" xml:space="preserve">
<style type="text/css">
	.st0{fill:#696969;}
</style>
<path class="st0" d="M17.8,5.2c-1.3-0.1-2.6,0.1-3.8,0.8c-1.5,0.9-2.5,2.4-3.1,4.1s-0.7,3.7-0.5,5.9c0,0.2,0.1,0.4,0.1,0.7
	c-0.2,0.1-0.4,0.2-0.6,0.3c-2,0.9-3.6,2-4.8,3.3s-2,3-2,4.7s0.8,3.4,2,4.7C6.4,31,8,32.1,10,33c0.2,0.1,0.4,0.2,0.6,0.3
	c0,0.2-0.1,0.5-0.1,0.7c-0.2,2.2-0.1,4.2,0.5,5.9s1.6,3.2,3.1,4.1s3.3,1,5.1,0.6c1.8-0.4,3.5-1.3,5.3-2.5c0.2-0.1,0.4-0.3,0.5-0.4
	c0.2,0.1,0.4,0.3,0.5,0.4c1.8,1.3,3.6,2.1,5.3,2.5c1.8,0.4,3.6,0.3,5.1-0.6s2.5-2.4,3.1-4.1s0.7-3.7,0.5-5.9c0-0.2-0.1-0.4-0.1-0.7
	c0.2-0.1,0.4-0.2,0.6-0.3c2-0.9,3.6-2,4.8-3.3c1.2-1.3,2-3,2-4.7s-0.8-3.4-2-4.7S42,17.9,40,17c-0.2-0.1-0.4-0.2-0.6-0.3
	c0-0.2,0.1-0.5,0.1-0.7c0.2-2.2,0.1-4.2-0.5-5.9s-1.6-3.2-3.1-4.1s-3.3-1-5.1-0.6c-1.8,0.4-3.5,1.3-5.3,2.5
	c-0.2,0.1-0.4,0.3-0.5,0.4c-0.2-0.1-0.4-0.3-0.5-0.4c-1.8-1.3-3.6-2.1-5.3-2.5C18.7,5.3,18.3,5.3,17.8,5.2z M17.6,8.4
	c0.3,0,0.5,0.1,0.9,0.1c1.2,0.3,2.6,0.9,4.1,2c-1.2,1.2-2.5,2.5-3.6,4c-1.9,0.3-3.7,0.6-5.3,1.1c-0.2-1.8,0-3.4,0.3-4.5
	c0.4-1.2,0.9-1.9,1.7-2.3C16.2,8.4,16.8,8.3,17.6,8.4z M32.4,8.4c0.8-0.1,1.4,0.1,2,0.4c0.7,0.4,1.3,1.1,1.7,2.3
	c0.4,1.2,0.5,2.7,0.3,4.5c-1.6-0.5-3.4-0.9-5.3-1.1c-1.2-1.5-2.4-2.8-3.6-4c1.5-1,2.9-1.7,4.1-2C31.8,8.4,32.1,8.4,32.4,8.4z
	 M25,12.4c0.5,0.5,1.1,1.1,1.6,1.7c-0.5,0-1.1,0-1.6,0s-1.1,0-1.6,0C23.9,13.5,24.5,12.9,25,12.4z M25,17.2c1.5,0,3,0.1,4.4,0.2
	c0.8,1.1,1.6,2.4,2.4,3.7c0.8,1.3,1.4,2.6,2,3.9c-0.6,1.3-1.2,2.6-2,3.9c-0.8,1.3-1.6,2.5-2.4,3.7c-1.4,0.1-2.9,0.2-4.4,0.2
	s-3-0.1-4.4-0.2c-0.8-1.1-1.6-2.4-2.4-3.7c-0.8-1.3-1.4-2.6-2-3.9c0.6-1.3,1.2-2.6,2-3.9c0.8-1.3,1.6-2.5,2.4-3.7
	C22,17.3,23.5,17.2,25,17.2z M16.4,18.1c-0.3,0.5-0.6,0.9-0.9,1.4c-0.3,0.5-0.5,1-0.8,1.4c-0.2-0.8-0.5-1.5-0.6-2.3
	C14.8,18.5,15.6,18.3,16.4,18.1z M33.6,18.1c0.8,0.2,1.5,0.4,2.3,0.6c-0.2,0.7-0.4,1.5-0.6,2.3c-0.3-0.5-0.5-1-0.8-1.4
	C34.2,19.1,33.9,18.6,33.6,18.1z M11.2,19.8c0.4,1.7,1,3.4,1.7,5.2c-0.7,1.8-1.3,3.5-1.7,5.2c-1.6-0.8-2.9-1.7-3.7-2.6
	c-0.8-0.9-1.2-1.8-1.2-2.6c0-0.8,0.4-1.7,1.2-2.6C8.3,21.5,9.5,20.6,11.2,19.8z M38.8,19.8c1.6,0.8,2.9,1.7,3.7,2.6
	c0.8,0.9,1.2,1.8,1.2,2.6c0,0.8-0.4,1.7-1.2,2.6c-0.8,0.9-2.1,1.8-3.7,2.6c-0.4-1.7-1-3.4-1.7-5.2C37.9,23.2,38.4,21.5,38.8,19.8z
	 M25,20.3c-2.6,0-4.7,2.1-4.7,4.7s2.1,4.7,4.7,4.7s4.7-2.1,4.7-4.7S27.6,20.3,25,20.3z M25,23.4c0.9,0,1.6,0.7,1.6,1.6
	s-0.7,1.6-1.6,1.6s-1.6-0.7-1.6-1.6S24.1,23.4,25,23.4z M14.7,29c0.3,0.5,0.5,1,0.8,1.4s0.6,0.9,0.9,1.4c-0.8-0.2-1.5-0.4-2.3-0.6
	C14.3,30.6,14.5,29.8,14.7,29z M35.3,29c0.2,0.8,0.5,1.5,0.6,2.3c-0.7,0.2-1.5,0.4-2.3,0.6c0.3-0.5,0.6-0.9,0.9-1.4S35,29.5,35.3,29
	z M13.6,34.4c1.6,0.5,3.4,0.9,5.3,1.1c1.2,1.5,2.4,2.8,3.6,4c-1.5,1-2.9,1.7-4.1,2c-1.2,0.3-2.1,0.1-2.8-0.3
	c-0.7-0.4-1.3-1.1-1.7-2.3C13.6,37.8,13.5,36.2,13.6,34.4z M36.4,34.4c0.2,1.8,0,3.4-0.3,4.5c-0.4,1.2-0.9,1.9-1.7,2.3
	s-1.6,0.5-2.8,0.3c-1.2-0.3-2.6-0.9-4.1-2c1.2-1.2,2.5-2.5,3.6-4C33,35.3,34.7,34.9,36.4,34.4z M23.4,35.9c0.5,0,1.1,0,1.6,0
	s1.1,0,1.6,0c-0.5,0.6-1.1,1.2-1.6,1.7C24.5,37.1,23.9,36.5,23.4,35.9z"/>
</svg>
