<?xml version="1.0" encoding="utf-8"?>
<!-- Generator: Adobe Illustrator 21.0.0, SVG Export Plug-In . SVG Version: 6.00 Build 0)  -->
<svg version="1.1" id="Слой_1" xmlns="http://www.w3.org/2000/svg" xmlns:xlink="http://www.w3.org/1999/xlink" x="0px" y="0px"
	 viewBox="0 0 138.6 85" style="enable-background:new 0 0 138.6 85;" xml:space="preserve">
<style type="text/css">
	.st0{fill:#94989C;}
</style>
<g transform="translate(8 8)">
	<path class="st0" d="M-3.7,77h48.3c0,0-9.2-42.1,21.3-59.1c6.7-3.2,27.9-15.3,62.6,10.3c1.1-0.9,2.1-1.6,2.1-1.6S98.8-5.1,63.4-1.6
		C45.6,0,23.8,16.2,10.9,37.6S-3.7,77-3.7,77z"/>
	<path class="st0" d="M-3.7,77h48.3c0,0-9.2-42.1,21.3-59.1c6.7-3.2,27.9-15.3,62.6,10.3c1.1-0.9,2.1-1.6,2.1-1.6S98.8-5.1,63.4-1.6
		C45.6,0,23.8,16.2,10.9,37.6S-3.7,77-3.7,77z"/>
	<path class="st0" d="M-3.7,77h48.3c0,0-9.2-42.1,21.3-59.1c6.7-3.2,27.9-15.3,62.6,10.3c1.1-0.9,2.1-1.6,2.1-1.6S98.8-5.1,63.4-1.6
		C45.6,0,23.7,16.2,10.9,37.6S-3.7,77-3.7,77z M96.8,1.8l0.2-4.1c-0.5-0.3-2.1-1-5.9-2.1l-0.2,4C92.9,0.3,94.9,1,96.8,1.8z"/>
	<path class="st0" d="M91,14.8l-0.2,3.8c2,0.1,4,0.3,6,0.7l0.2-3.8C95,15.2,93,14.9,91,14.8z M68.4-4.3H69L67.8-8
		c-1.9,0-3.8,0.1-5.9,0.4L63.1-4C64.9-4.2,66.7-4.3,68.4-4.3z M71.4,18.2l1.4,4.2c1.8-0.9,3.5-1.6,5.3-2.1l-1.3-4
		C74.7,16.9,72.9,17.5,71.4,18.2z M43.6,2.1l-2.7-4.2c-1.5,0.8-3.1,1.6-4.8,2.6l2.8,4.3C40.5,3.9,42,2.9,43.6,2.1z M56.1,29.6
		l2.9,4.4c1-1.5,2.3-2.9,3.6-4.3l-2.7-4.2C58.5,26.8,57.2,28.2,56.1,29.6z M47.3,49.3l4.9,3.9c0.2-2.4,0.7-4.8,1.3-7.1l-4.4-3.5
		C48.3,44.8,47.8,47.1,47.3,49.3z M20.5,20.3l-4.3-3.8c-1.6,1.5-3.1,3.1-4.5,4.6l4.7,4C17.7,23.5,19.1,21.8,20.5,20.3z M2.1,47.6
		l-7-2.6c-1.2,2.6-2.4,5.7-3.1,7.3l7,2.6C-0.2,52.8,1.1,49.9,2.1,47.6z M46.4,64.8c0.1,3.2,0.4,5.9,0.7,7.7l7.3,2.6
		c-0.5-2.4-1.1-5.1-1.5-7.9L46.4,64.8z"/>
</g>
</svg>
