<?xml version="1.0" encoding="utf-8"?>
<!-- Generator: Adobe Illustrator 21.0.0, SVG Export Plug-In . SVG Version: 6.00 Build 0)  -->
<svg version="1.1" id="Слой_1" xmlns="http://www.w3.org/2000/svg" xmlns:xlink="http://www.w3.org/1999/xlink" x="0px" y="0px"
	 viewBox="0 0 85 85" style="enable-background:new 0 0 85 85;" xml:space="preserve">
<style type="text/css">
	.st0{fill:#94989C;}
</style>
<path class="st0" d="M23.3,75c18.8,2.6,37.3,5.1,56.2,7.7c-6.4-10.7-12.7-21.1-19-31.6L23.3,75z M84.8,15.8c-1.7,2.5-3.3,5-5,7.5
	c-5.7,8.6-11.4,17.1-17.1,25.7c-0.3,0.5-0.7,0.9-0.3,1.6c5.5,9.1,10.9,18.2,16.4,27.3c0.9,1.4,1.7,2.9,2.8,4.2
	C82.8,60,83.9,37.9,85,15.8L84.8,15.8z M9.8,44c0.3,0.2,0.9,0.4,1.2,0.2c5.3-2.6,10.6-5.1,15.7-7.9c1.7-0.9,3-2.6,4.4-3.9
	c4.8-4.4,9.6-8.8,14.4-13.2c0.3-0.3,0.6-0.5,0.8-0.9c1.7-3.4,3.4-6.7,5.2-10.2c-2.1-0.8-4.1-1.6-6.1-2.2c-0.3-0.1-0.7,0.1-1,0.3
	c-4.6,2.6-9.4,5-13.8,7.9c-2.2,1.4-4.1,3.5-6.1,5.3c-3.2,2.9-6.4,5.9-9.6,8.8c-0.8,0.8-1.6,1.7-2.3,2.6c-2.2,3.1-4.3,6.3-6.4,9.6
	C7.5,41.7,8.6,42.9,9.8,44z M29.1,39.7c-2.6,11.1-5.2,22.1-7.9,33.5c12.6-8.1,25-16.1,37.2-24C48.6,46.1,38.9,42.9,29.1,39.7z
	 M81.6,15.9c-10.7,1.8-21.1,3.5-31.6,5.3c3.6,8.7,7.1,17.3,10.7,26.1C67.7,36.7,74.6,26.4,81.6,15.9z M29.5,37.5
	c9.6,3.1,19,6.2,28.7,9.3c-3.6-8.8-7.1-17.2-10.6-25.9C41.5,26.5,35.6,31.9,29.5,37.5z M10.2,50.5c-3.4,8.1-6.7,16-10,24
	c6.4-0.2,12.7-0.4,19.1-0.6C16.2,66.1,13.3,58.5,10.2,50.5z M19.5,68.4l0.2-0.1c2.3-9.6,4.6-19,7-29c-5.2,2.7-10.2,5.3-15.4,8
	C14,54.1,16.8,61.3,19.5,68.4z M77.7,14.3c-3.1-0.8-6.1-1.6-9.2-2.4c-4.4-1.2-8.8-2.3-13.2-3.5c-0.5-0.1-0.9-0.2-1.3,0.4
	c-1.6,3.2-3.2,6.3-4.7,9.5c0,0.1,0,0.2-0.1,0.5c9.5-1.4,19-2.9,28.4-4.3L77.7,14.3z M60,7.1L84.9,14c-1.4-4.1-2.8-7.8-4.1-11.7
	L60,6.8L60,7.1z M21.6,76.8c-3.1-0.4-6.3,0-9.4,0c-2.6,0-5.1,0.1-7.7,0.2c-0.3,0-0.5,0.1-0.8,0.3c21.2,2,42.5,3.9,63.7,5.9l0-0.3
	c-6.8-0.9-13.6-1.9-20.4-2.8C38.6,79,30.1,77.8,21.6,76.8z M0.6,67.2C3.3,60.8,6,54.5,8.8,48.1C9,47.5,9,47.1,8.5,46.5
	C7.3,45.5,6.3,44.3,5,43c-1.7,8.4-3.4,16.6-5,24.8l0.2,0.1C0.3,67.6,0.5,67.4,0.6,67.2z M54.5,5.4c4.6-1.2,9.3-2.1,14-3.2
	c0.3-0.1,0.6-0.2,0.9-0.3l0-0.2c-6.6,0.9-13.1,1.8-20,2.7C51.2,5.3,52.7,5.9,54.5,5.4z"/>
</svg>
