<?xml version="1.0" encoding="utf-8"?>
<!-- Generator: Adobe Illustrator 21.0.0, SVG Export Plug-In . SVG Version: 6.00 Build 0)  -->
<svg version="1.1" id="Слой_1" xmlns="http://www.w3.org/2000/svg" xmlns:xlink="http://www.w3.org/1999/xlink" x="0px" y="0px"
	 viewBox="0 0 98.2 85" style="enable-background:new 0 0 98.2 85;" xml:space="preserve">
<style type="text/css">
	.st0{fill:none;stroke:#95999C;stroke-width:2;stroke-miterlimit:10;}
	.st1{fill:#95999C;}
</style>
<g>
	<path class="st0" d="M77.5,1.2c-0.1,0-0.2,0-0.4,0c-5.6,0-11.1,0-16.7,0c-0.3,0-0.5-0.3-0.6,0c-3.5,6-7,12.2-10.4,18.2
		c-0.1,0.1-0.2,0.3-0.3,0.5c-0.1-0.2-0.2-0.3-0.3-0.5c-3.5-6-7-12.2-10.4-18.3c-0.2-0.3-0.4,0-0.7,0c-3.3,0-6.5,0-9.8,0
		c-2.4,0-4.8,0-7.2,0c-6.3,0-12.6,0-19,0C17.6,28.6,33.3,55.7,49.1,83C65,55.6,80.7,28.5,96.5,1.2c-0.2,0-0.3,0-0.4,0
		C89.9,1.2,83.7,1.2,77.5,1.2z"/>
	<path class="st1" d="M77.5,1.5c6.2,0,12.4,0,18.6,0c0.1,0,0.2,0,0.4,0C80.7,28.8,65,56,49.1,83.4C33.3,56,17.6,28.9,1.7,1.5
		c6.4,0,12.7,0,19,0c0.1,0.1,0.1-0.1,0.2,0c1.4,2.4,2.8,5,4.2,7.4c4.3,7.5,8.6,14.9,12.9,22.4c3.6,6.2,7.2,12.4,10.8,18.6
		c0.1,0.2,0.2,0.3,0.4,0.6c0.1-0.1,0.2-0.2,0.2-0.3c1.1-2,2.3-3.9,3.4-5.9c3.9-6.8,7.9-13.7,11.8-20.5c4-6.9,8-15.4,12-22.3
		C76.9,0.9,77.2,2.1,77.5,1.5z"/>
	<path class="st0" d="M77.5,1.2c-0.3,0.6-0.6-0.6-0.9,0c-4,6.9-8,15.4-12,22.3c-3.9,6.8-7.9,13.7-11.8,20.5c-1.1,2-2.3,3.9-3.4,5.9
		c-0.1,0.1-0.1,0.2-0.2,0.3c-0.1-0.2-0.3-0.4-0.4-0.6c-3.6-6.2-7.2-12.4-10.8-18.6C33.7,23.5,29.4,16,25.1,8.6
		c-1.4-2.4-2.8-5-4.2-7.4c-0.1-0.1-0.1,0.1-0.2,0c2.4,0,4.8,0,7.2,0c3.3,0,6.5,0,9.8,0c0.3,0,0.5-0.3,0.7,0c3.5,6,7,12.2,10.4,18.3
		c0.1,0.1,0.2,0.3,0.3,0.5c0.1-0.2,0.2-0.3,0.3-0.5c3.5-6,7-12.2,10.4-18.2c0.2-0.3,0.3,0,0.6,0c5.6,0,11.1,0,16.7,0
		C77.3,1.2,77.4,1.2,77.5,1.2z"/>
</g>
</svg>
